<?xml version="1.0" standalone="no"?>
<!DOCTYPE svg PUBLIC "-//W3C//DTD SVG 20010904//EN"
 "http://www.w3.org/TR/2001/REC-SVG-20010904/DTD/svg10.dtd">
<svg version="1.0" xmlns="http://www.w3.org/2000/svg"
 width="1024.000000pt" height="1024.000000pt" viewBox="0 0 1024.000000 1024.000000"
 preserveAspectRatio="xMidYMid meet">

<g transform="translate(0.000000,1024.000000) scale(0.100000,-0.100000)"
fill="#000000" stroke="none">
<path d="M5020 9013 c-519 -20 -1004 -198 -1414 -520 -90 -71 -275 -256 -347
-348 -393 -497 -570 -1100 -504 -1717 82 -776 545 -1460 1239 -1833 207 -111
490 -208 696 -239 168 -25 231 -28 415 -23 370 11 623 71 955 229 l124 59 18
-23 c72 -93 349 -494 472 -683 276 -425 407 -607 493 -684 155 -139 376 -130
524 20 115 116 138 285 59 439 -11 22 -73 99 -139 172 -316 355 -583 653 -745
834 -99 109 -189 209 -200 221 l-19 23 89 92 c341 354 566 796 649 1273 51
295 33 657 -51 987 -132 523 -489 1018 -956 1328 -344 228 -752 367 -1133 385
-60 3 -121 7 -135 8 -14 1 -54 1 -90 0z m245 -473 c253 -28 430 -78 640 -180
530 -256 899 -729 1022 -1309 25 -117 27 -144 27 -366 0 -223 -2 -249 -27
-367 -67 -318 -197 -594 -387 -823 -75 -90 -248 -256 -337 -323 -244 -183
-547 -310 -855 -357 -115 -18 -409 -20 -525 -4 -184 24 -403 94 -583 184 -193
97 -329 195 -489 353 -266 263 -435 576 -522 967 -27 124 -38 433 -19 584 25
208 81 395 180 596 141 288 334 515 607 712 108 78 352 200 493 247 248 81
532 113 775 86z"/>
<path d="M5004 7806 c-18 -8 -128 -66 -245 -129 -532 -285 -913 -489 -1021
-546 -64 -34 -122 -68 -128 -76 -17 -20 -16 -91 1 -111 7 -9 47 -33 88 -54
124 -63 112 -27 111 -330 l-1 -265 -24 -20 c-38 -31 -45 -66 -45 -208 1 -196
31 -247 150 -247 72 0 113 20 135 66 17 33 19 59 17 181 -1 78 -6 153 -12 167
-5 14 -23 32 -40 41 l-30 16 0 234 0 234 83 -43 c574 -302 1021 -526 1047
-526 20 0 158 67 413 201 210 111 534 280 719 378 361 188 368 193 353 259 -3
17 -14 36 -23 44 -15 13 -305 164 -987 513 -115 59 -265 136 -332 171 -131 68
-168 76 -229 50z"/>
<path d="M4200 6155 l0 -264 35 -28 c141 -117 417 -230 655 -269 125 -21 364
-13 502 16 210 44 432 145 553 252 l36 31 -1 253 c-1 140 -4 254 -8 254 -4 0
-198 -92 -430 -204 l-424 -203 -311 144 c-172 80 -378 176 -459 213 l-148 69
0 -264z"/>
<path d="M1296 2606 c-65 -22 -140 -75 -175 -124 -35 -50 -54 -127 -47 -193 7
-71 25 -110 75 -162 47 -51 87 -70 218 -108 127 -37 154 -49 182 -85 40 -51
15 -121 -55 -150 -78 -33 -216 -5 -279 57 -17 16 -40 29 -52 29 -25 0 -123
-102 -123 -129 0 -59 137 -140 273 -162 63 -9 96 -9 162 0 198 30 311 133 323
294 6 81 -14 142 -66 199 -52 57 -109 87 -251 129 -102 31 -131 44 -153 69
-33 36 -35 68 -7 104 55 70 160 78 275 21 40 -19 76 -35 82 -35 14 0 102 99
102 115 0 20 -39 64 -80 90 -108 68 -273 85 -404 41z"/>
<path d="M6019 2601 c-215 -76 -342 -267 -338 -505 3 -162 45 -264 153 -371
83 -82 155 -120 269 -143 68 -13 90 -14 156 -3 104 18 170 44 238 96 73 55
126 125 165 217 26 60 31 90 36 178 8 177 -29 287 -137 402 -138 148 -347 198
-542 129z m292 -199 c172 -90 215 -371 81 -531 -164 -197 -450 -87 -478 185
-13 123 28 237 109 310 56 50 88 62 173 63 49 1 73 -5 115 -27z"/>
<path d="M4890 2611 l-35 -6 0 -505 0 -505 80 -3 c134 -5 124 -19 127 176 l3
167 117 6 c267 15 374 105 386 325 6 112 -12 173 -69 238 -63 71 -128 97 -267
107 -135 9 -291 9 -342 0z m380 -197 c78 -31 109 -118 71 -197 -29 -59 -72
-77 -185 -77 -67 0 -85 3 -90 16 -12 30 -7 249 6 262 18 18 150 15 198 -4z"/>
<path d="M1957 2603 c-4 -3 -7 -230 -7 -504 0 -444 2 -498 16 -503 29 -11 179
-7 192 6 8 8 12 60 12 168 l0 155 33 39 33 38 39 -58 c95 -145 239 -332 261
-343 26 -12 191 -15 218 -5 9 3 16 14 16 23 0 9 -82 123 -183 254 -100 131
-187 246 -194 255 -10 14 -4 27 38 77 225 268 310 377 306 390 -4 11 -186 20
-223 11 -12 -3 -87 -90 -178 -206 -87 -110 -162 -200 -167 -200 -5 0 -8 84 -6
195 2 164 -1 197 -13 205 -17 11 -183 14 -193 3z"/>
<path d="M2902 2598 c-17 -17 -17 -979 0 -996 16 -16 180 -16 196 0 17 17 17
979 0 996 -16 16 -180 16 -196 0z"/>
<path d="M3325 2598 c-3 -7 -4 -236 -3 -508 l3 -495 294 -3 c208 -2 298 1 307
9 21 17 19 165 -2 173 -9 3 -94 6 -189 6 -95 0 -180 3 -189 6 -14 5 -16 50
-16 403 0 295 -3 400 -12 409 -17 17 -187 16 -193 0z"/>
<path d="M4085 2598 c-3 -7 -4 -236 -3 -508 l3 -495 293 -3 c190 -1 300 1 312
8 17 9 20 21 20 84 0 49 -4 77 -13 85 -9 7 -85 12 -208 13 l-194 3 -3 399 c-1
274 -6 403 -13 413 -15 18 -187 19 -194 1z"/>
<path d="M6875 2598 c-3 -7 -4 -236 -3 -508 l3 -495 88 -3 c57 -2 94 1 103 9
12 10 14 94 14 504 0 440 -2 494 -16 499 -31 12 -184 7 -189 -6z"/>
<path d="M7295 2598 c-3 -7 -4 -236 -3 -508 l3 -495 88 -3 c52 -2 94 2 102 8
9 8 12 84 11 335 0 179 1 325 4 325 3 0 100 -143 215 -317 116 -175 218 -325
228 -335 24 -25 211 -27 221 -2 3 9 6 233 6 498 0 362 -3 485 -12 494 -7 7
-45 12 -99 12 -70 0 -88 -3 -93 -16 -3 -9 -6 -163 -6 -342 l0 -327 -62 95
c-266 413 -363 557 -380 573 -16 14 -39 17 -119 17 -71 0 -101 -4 -104 -12z"/>
<path d="M8332 2598 c-7 -7 -12 -41 -12 -85 0 -61 3 -74 19 -83 11 -5 78 -10
150 -10 l131 0 0 -399 c0 -220 3 -406 6 -415 5 -13 24 -16 99 -16 64 0 96 4
102 13 4 6 8 192 8 412 l0 400 137 5 c79 3 142 10 148 16 7 7 10 42 8 90 l-3
79 -390 3 c-296 2 -394 -1 -403 -10z"/>
</g>
</svg>
